Coordinates
version=1
nRows=26
nColumns=22
inDegrees=yes

Units are S.I. units (second, meters, Newtons, ...)
If the header above contains a line with 'inDegrees', this indicates whether rotational values are in degrees (yes) or radians (no).

endheader
time	pelvis_tilt	pelvis_list	pelvis_rotation	pelvis_tx	pelvis_ty	pelvis_tz	hip_flexion_r	hip_adduction_r	hip_rotation_r	knee_angle_r	ankle_angle_r	subtalar_angle_r	hip_flexion_l	hip_adduction_l	hip_rotation_l	knee_angle_l	ankle_angle_l	subtalar_angle_l	lumbar_extension	lumbar_bending	lumbar_rotation
      0.01000000	    -16.96142855	     -2.43525788	     -2.74808093	     -0.70420714	      0.97178169	      0.35727724	     20.86436398	      2.62907815	     -3.99230162	    -15.27391075	     16.92686354	     -3.45146672	     19.48528788	     -2.27189437	     -5.30785969	    -15.61335434	     20.09661391	     -1.77089053	     12.57643581	      5.02617440	      3.73857002
      0.02000000	    -16.96672051	     -2.43602534	     -2.74994830	     -0.70420954	      0.97178031	      0.35733887	     20.86709457	      2.63433743	     -3.99462928	    -15.26950192	     16.92676668	     -3.45048096	     19.48900152	     -2.27686745	     -5.30672522	    -15.60894518	     20.09740805	     -1.77139052	     12.56749794	      5.01537456	      3.73948502
      0.03000000	    -16.97284158	     -2.43743920	     -2.75127249	     -0.70421029	      0.97177775	      0.35741506	     20.86973476	      2.64117116	     -3.99765780	    -15.26346676	     16.92623631	     -3.44952656	     19.49311504	     -2.28330261	     -5.30475681	    -15.60418560	     20.09837020	     -1.77221930	     12.55816327	      5.00150839	      3.74223893
      0.04000000	    -16.98160484	     -2.44108911	     -2.74849350	     -0.70419051	      0.97177486	      0.35749845	     20.86571066	      2.65020303	     -4.00530704	    -15.24206290	     16.91833363	     -3.44537960	     19.49904390	     -2.29111445	     -5.29217090	    -15.60005007	     20.10243531	     -1.77912722	     12.55672054	      4.98419351	      3.76616312
      0.05000000	    -16.98835138	     -2.44220196	     -2.75280379	     -0.70419291	      0.97177165	      0.35758304	     20.86886305	      2.65760372	     -4.00845967	    -15.23516007	     16.91756732	     -3.44480754	     19.50344525	     -2.29790820	     -5.29017606	    -15.59543433	     20.10289876	     -1.78047132	     12.54573690	      4.96997277	      3.76557738
      0.06000000	    -16.99447150	     -2.44427429	     -2.75426071	     -0.70418776	      0.97176757	      0.35767606	     20.87014119	      2.66599047	     -4.01188417	    -15.22721716	     16.91631312	     -3.44424248	     19.50755228	     -2.30590592	     -5.28761704	    -15.59200023	     20.10326463	     -1.78233375	     12.53734810	      4.95262938	      3.76709416
      0.07000000	    -17.00206313	     -2.44894056	     -2.74459510	     -0.70415267	      0.97176655	      0.35775463	     20.85489450	      2.67455203	     -4.02120876	    -15.18845705	     16.90364638	     -3.44246999	     19.51775036	     -2.31309867	     -5.27082544	    -15.59856231	     20.10337073	     -1.79734781	     12.53850952	      4.93223708	      3.78476162
      0.08000000	    -17.00722228	     -2.45012069	     -2.74991985	     -0.70414253	      0.97176385	      0.35784008	     20.85605329	      2.68203269	     -4.02438554	    -15.18236613	     16.90263629	     -3.44230997	     19.52133160	     -2.32003570	     -5.26777758	    -15.59648846	     20.10325974	     -1.79936056	     12.52960360	      4.91760739	      3.78165692
      0.09000000	    -17.01147964	     -2.45198037	     -2.75157707	     -0.70412230	      0.97176202	      0.35792737	     20.85475997	      2.68985873	     -4.02775844	    -15.17472298	     16.90123281	     -3.44217670	     19.52502459	     -2.32738890	     -5.26346625	    -15.59730229	     20.10288671	     -1.80193030	     12.52265278	      4.90037939	      3.78050203
      0.10000000	    -17.00153498	     -2.47794440	     -2.71100304	     -0.70408802	      0.97178804	      0.35794673	     20.80671783	      2.70947940	     -4.05975008	    -15.11253658	     16.86660602	     -3.45151434	     19.53309020	     -2.34382152	     -5.19553025	    -15.62707951	     20.09978360	     -1.86495705	     12.50308817	      4.90035558	      3.73305986
      0.11000000	    -17.00444504	     -2.47901579	     -2.71526083	     -0.70406412	      0.97178598	      0.35802744	     20.80617306	      2.71615982	     -4.06425392	    -15.10884052	     16.86739915	     -3.45186482	     19.53559571	     -2.35012915	     -5.19194846	    -15.62871124	     20.09991656	     -1.86644231	     12.49629252	      4.88511352	      3.73433484
      0.12000000	    -17.00551717	     -2.48046002	     -2.71636203	     -0.70403603	      0.97178685	      0.35810809	     20.80295376	      2.72294705	     -4.06911576	    -15.10432156	     16.86804148	     -3.45237969	     19.53904986	     -2.35640605	     -5.18562784	    -15.63568825	     20.09995161	     -1.86845813	     12.48900271	      4.86720126	      3.73724153
      0.13000000	    -16.99272206	     -2.48309358	     -2.69737891	     -0.70402704	      0.97180153	      0.35813510	     20.77995197	      2.72242867	     -4.08351271	    -15.08974578	     16.86984982	     -3.45671465	     19.55187897	     -2.35571829	     -5.15479866	    -15.68353933	     20.10186056	     -1.87918399	     12.46270148	      4.84786992	      3.75179194
      0.14000000	    -16.99222589	     -2.48431983	     -2.70202498	     -0.70398197	      0.97180424	      0.35821124	     20.77701017	      2.72937048	     -4.08753990	    -15.08970758	     16.87013872	     -3.45743353	     19.55082750	     -2.36176695	     -5.14942456	    -15.68854994	     20.10261140	     -1.88087445	     12.45820993	      4.83442759	      3.74744168
      0.15000000	    -16.93172376	     -2.51085633	     -2.66126962	     -0.70393258	      0.97188518	      0.35820840	     20.70188342	      2.74294915	     -4.14699834	    -15.08048228	     16.88107697	     -3.48438734	     19.51066326	     -2.37708660	     -5.09279765	    -15.73176726	     20.13247941	     -1.92572570	     12.37696997	      4.83935865	      3.70001317
      0.16000000	    -16.92093744	     -2.51018059	     -2.66587798	     -0.70388253	      0.97190301	      0.35828291	     20.68735738	      2.74854743	     -4.13940642	    -15.07943199	     16.87668176	     -3.48702643	     19.50500373	     -2.38012765	     -5.07861928	    -15.75093131	     20.12764094	     -1.93058668	     12.36250455	      4.82218125	      3.72473534
      0.17000000	    -16.91724112	     -2.50951245	     -2.67344929	     -0.70380020	      0.97190969	      0.35836255	     20.68143000	      2.75429426	     -4.13857723	    -15.08405187	     16.87657098	     -3.48758962	     19.49890997	     -2.38515933	     -5.07549293	    -15.75894163	     20.12767755	     -1.93162768	     12.36570182	      4.81056367	      3.72568007
      0.18000000	    -16.88755215	     -2.50665209	     -2.68657840	     -0.70376882	      0.97194626	      0.35845615	     20.65833830	      2.76115580	     -4.11317805	    -15.10265731	     16.88219834	     -3.49404739	     19.48298635	     -2.38978930	     -5.07245320	    -15.79753283	     20.13554484	     -1.94079347	     12.32440595	      4.79194502	      3.76998609
      0.19000000	    -16.81923067	     -2.49639172	     -2.73921441	     -0.70362392	      0.97204395	      0.35859261	     20.58838131	      2.77116993	     -4.05433955	    -15.11872445	     16.90717503	     -3.51461044	     19.39257129	     -2.39970971	     -5.15218546	    -15.79431452	     20.16882130	     -1.96730002	     12.25373364	      4.78283054	      3.83927157
      0.20000000	    -16.81439834	     -2.49509597	     -2.74742593	     -0.70353580	      0.97205039	      0.35867102	     20.58078180	      2.77684411	     -4.05418493	    -15.12230624	     16.90604555	     -3.51474813	     19.38550663	     -2.40379327	     -5.14859343	    -15.80178039	     20.16727185	     -1.96759409	     12.26243799	      4.77171107	      3.83930134
      0.21000000	    -16.72844480	     -2.48177117	     -2.79662449	     -0.70340853	      0.97218281	      0.35879293	     20.48684364	      2.78271833	     -3.97720982	    -15.12502814	     16.90987162	     -3.53286382	     19.27691079	     -2.40679528	     -5.21084919	    -15.79672533	     20.17709057	     -1.98623789	     12.16753222	      4.75893468	      3.91523316
      0.22000000	    -16.72274797	     -2.48120917	     -2.80026606	     -0.70333072	      0.97218998	      0.35884227	     20.47897914	      2.78615823	     -3.97801625	    -15.12966229	     16.90971904	     -3.53301628	     19.27084686	     -2.40891863	     -5.20746491	    -15.80502295	     20.17650005	     -1.98637039	     12.17857786	      4.75252681	      3.91722548
      0.23000000	    -16.70124973	     -2.47927550	     -2.80456549	     -0.70328677	      0.97221664	      0.35887249	     20.45729979	      2.78632022	     -3.97463082	    -15.13525207	     16.91577824	     -3.53549073	     19.25920877	     -2.40874812	     -5.19985367	    -15.83323843	     20.18076346	     -1.98845320	     12.16305233	      4.74729319	      3.94694977
      0.24000000	    -16.69464038	     -2.47848379	     -2.80548110	     -0.70323108	      0.97222640	      0.35888300	     20.45023097	      2.78598093	     -3.97299043	    -15.14140170	     16.91590725	     -3.53575718	     19.25219721	     -2.40810685	     -5.20027239	    -15.83871322	     20.18124992	     -1.98874269	     12.17300925	      4.74903909	      3.94702085
      0.25000000	    -16.68775423	     -2.47731243	     -2.80542394	     -0.70319589	      0.97223771	      0.35887905	     20.44360200	      2.78392217	     -3.97145853	    -15.14635114	     16.91644621	     -3.53604888	     19.24591449	     -2.40635220	     -5.20141484	    -15.84376939	     20.18187197	     -1.98906117	     12.17971628	      4.75288226	      3.94792968
      0.26000000	    -16.57200965	     -2.46989294	     -2.82013937	     -0.70307635	      0.97242419	      0.35888656	     20.30739561	      2.77572441	     -3.96341901	    -15.13056255	     16.94213381	     -3.54093176	     19.09611528	     -2.39852570	     -5.24168766	    -15.80890696	     20.19103638	     -1.99337681	     12.05452983	      4.75043296	      3.97724522
